<svg width="580" height="400" xmlns="http://www.w3.org/2000/svg">
 <!-- Created with SVG Editor - http://github.com/mzalive/SVG Editor/ -->

 <g>
  <title>background</title>
  <rect fill="#fff" id="canvas_background" height="402" width="582" y="-1" x="-1"/>
  <g display="none" overflow="visible" y="0" x="0" height="100%" width="100%" id="canvasGrid">
   <rect fill="url(#gridpattern)" stroke-width="0" y="0" x="0" height="100%" width="100%"/>
  </g>
 </g>
 <g>
  <title>Layer 1</title>
  <ellipse ry="25" rx="25" id="svg_1" cy="175" cx="289.5" stroke="#000" fill="#fff"/>
  <path id="svg_14" d="m268.75001,258.55731l21.39648,-57.05731l21.39648,57.05731l-42.79296,0z" fill-opacity="null" stroke-opacity="null" stroke="#000" fill="none"/>
  <path transform="rotate(90 234.896484375,174.2786560058594) " id="svg_15" d="m213.499997,202.807318l21.39648,-57.05731l21.39648,57.05731l-42.79296,0z" fill-opacity="null" stroke-opacity="null" stroke="#000" fill="none"/>
  <path transform="rotate(-90 344.3509216308594,175.46762084960935) " id="svg_16" d="m322.954448,203.996265l21.39648,-57.05731l21.39648,57.05731l-42.79296,0z" fill-opacity="null" stroke-opacity="null" stroke="#000" fill="none"/>
  <path transform="rotate(180 289.07666015625,120.90656280517578) " id="svg_17" d="m267.68019,149.435225l21.39648,-57.05731l21.39648,57.05731l-42.79296,0z" fill-opacity="null" stroke-opacity="null" stroke="#000" fill="none"/>
  <path transform="rotate(45 249.1365509033203,211.8416290283203) " id="svg_18" d="m227.740079,240.370293l21.39648,-57.05731l21.39648,57.05731l-42.79296,0z" fill-opacity="null" stroke-opacity="null" stroke="#000" fill="none"/>
  <path transform="rotate(135 251.63281250000006,136.24069213867188) " id="svg_19" d="m230.236342,164.769368l21.39648,-57.05731l21.39648,57.05731l-42.79296,0z" fill-opacity="null" stroke-opacity="null" stroke="#000" fill="none"/>
  <path transform="rotate(-45 328.6601867675781,212.55485534667966) " id="svg_20" d="m307.263691,241.083508l21.39648,-57.05731l21.39648,57.05731l-42.79296,0z" fill-opacity="null" stroke-opacity="null" stroke="#000" fill="none"/>
  <path transform="rotate(-135 327.5903625488281,135.52749633789062) " id="svg_21" d="m306.193871,164.056157l21.39648,-57.05731l21.39648,57.05731l-42.79296,0z" fill-opacity="null" stroke-opacity="null" stroke="#000" fill="none"/>
  <path id="svg_24" d="m126.853942,326.762515c-1.637751,-0.341385 -2.874123,-1.994703 -2.464068,-3.713685c0.579942,-2.411668 2.77714,-4.079924 4.976075,-4.872784c1.464724,-0.49811 3.126864,-0.422814 4.502188,0.317821c0.122809,-9.211552 0.052681,-18.425426 0.07133,-27.638019c0.496436,-0.000124 1.13348,-0.164239 0.998593,0.571942c0.069271,1.654321 0.863223,3.168765 2.083367,4.235921c2.722007,2.596875 5.783988,5.416758 6.409267,9.374623c0.177502,1.669752 -0.012739,3.352545 -0.374986,4.983117c1.072767,2.050262 1.008125,4.534275 0.572533,6.757964c-0.282459,1.174211 -0.743176,2.305343 -1.328829,3.352803c-1.382827,0.659163 0.163904,-1.077394 0.144504,-1.702983c0.747964,-1.879356 0.833769,-3.972796 0.493568,-5.952445c-0.741103,-2.895956 -3.542881,-4.310929 -5.795955,-5.825025c-0.815218,-0.326688 -2.557789,-2.297014 -2.212252,-0.366293c-0.075522,5.233572 -0.062627,10.467899 -0.086285,15.701873c-0.945747,2.426561 -3.115357,4.278482 -5.635368,4.742863c-0.772023,0.136618 -1.580533,0.186578 -2.353684,0.032309l0.000001,-0.000002zm15.71259,-19.788354c0.022467,-2.978445 -2.144042,-5.388275 -4.266934,-7.154556c-1.062276,-0.820097 -2.187508,-1.688932 -3.381995,-2.219717c0.073469,1.712735 0.838825,3.381536 1.754937,4.803841c1.726436,2.368733 4.332844,3.953162 5.779075,6.561234c0.17342,-0.647541 0.121111,-1.327162 0.114917,-1.990803z" fill-opacity="null" stroke-opacity="null" stroke-width="null" stroke="#000" fill="none"/>
  <path id="svg_25" d="m167.955861,320.097186c-2.259541,-0.42079 -3.038697,-3.360366 -1.691567,-5.121493c1.787812,-2.723705 5.612116,-4.559828 8.608502,-2.841235c0.059719,-9.591253 0.025252,-19.183028 0.034386,-28.774513c7.471315,-1.552162 14.958788,-3.024494 22.432932,-4.563151c-0.016185,10.749672 -0.032372,21.499345 -0.048557,32.249016c-1.170902,3.251345 -4.954367,5.505955 -8.248799,4.497765c-1.961343,-0.604591 -2.431551,-3.21163 -1.339394,-4.808998c1.495602,-2.382777 4.27929,-4.018762 7.077796,-3.572447c0.798612,-0.083189 1.974632,1.24826 1.637083,-0.257949c0,-5.389198 0,-10.778393 0,-16.16759c-6.858352,1.421734 -13.730264,2.775937 -20.591787,4.182284c-0.031655,6.731768 0.078163,13.466816 -0.07923,20.196016c-0.496056,2.601049 -2.975302,4.403639 -5.381061,4.929587c-0.796259,0.097706 -1.613411,0.1824 -2.410306,0.052709l0.000001,-0.000001zm17.890707,-29.311338c3.523849,-0.714121 7.049355,-1.419667 10.571676,-2.141702c0.448263,-1.83897 -1.557852,-0.644689 -2.53894,-0.599796c-6.016763,1.22309 -12.037002,2.428074 -18.052847,3.655919c-0.448263,1.838969 1.557852,0.644689 2.53894,0.599794c2.493471,-0.506057 4.987274,-1.010381 7.481169,-1.514215l0.000001,0zm0,-3.218605c3.523849,-0.714121 7.049355,-1.419666 10.571676,-2.1417c0.448263,-1.83897 -1.557852,-0.644689 -2.53894,-0.599796c-6.016763,1.22309 -12.037002,2.428074 -18.052847,3.655918c-0.448263,1.83897 1.557852,0.644689 2.53894,0.599796c2.493471,-0.506058 4.987274,-1.010383 7.481169,-1.514218l0.000001,0zm0,-3.218605c3.523849,-0.714121 7.049355,-1.419667 10.571676,-2.141702c0.448263,-1.838969 -1.557852,-0.644689 -2.53894,-0.599795c-6.016763,1.22309 -12.037002,2.428076 -18.052847,3.655918c-0.448263,1.83897 1.557852,0.644691 2.53894,0.599796c2.493471,-0.506057 4.987274,-1.010383 7.481169,-1.514216l0.000001,-0.000001z" fill-opacity="null" stroke-opacity="null" stroke-width="null" stroke="#000" fill="none"/>
  <path id="svg_26" d="m234.178019,327.827274c-1.80004,-0.306297 -3.525546,-1.561815 -3.184389,-3.064182c0.02623,-1.874271 2.099661,-3.196951 3.932099,-4.211259c2.367297,-1.244389 5.630541,-1.638092 8.234401,-0.58163c0.156047,-8.755722 0.06791,-17.5136 0.091209,-26.270306c0.454875,0.081393 1.445024,-0.244629 1.216105,0.357224c-0.022315,9.104444 0.051091,18.209373 -0.05836,27.313421c-0.011492,1.235185 -0.033377,2.57364 -1.175172,3.55312c-2.108959,2.021387 -5.630226,3.362626 -9.055892,2.90361l0,0.000001z" fill-opacity="null" stroke-opacity="null" stroke-width="null" stroke="#000" fill="none"/>
  <path id="svg_27" d="m411.624884,311.854129c-1.894778,-0.290344 -3.711099,-1.480472 -3.351986,-2.904594c0.027611,-1.776655 2.210168,-3.030448 4.139049,-3.991928c2.49189,-1.179579 5.926881,-1.552777 8.667784,-0.551338c0.16426,-8.299707 0.071484,-16.601457 0.09601,-24.902096c0.478816,0.077154 1.521077,-0.231889 1.280109,0.33862c-0.023489,8.630267 0.05378,17.260993 -0.061431,25.890883c-0.012097,1.170854 -0.035133,2.439599 -1.237023,3.368067c-2.219955,1.916109 -5.926549,3.187494 -9.532511,2.752384l0,0.000001z" fill-opacity="null" stroke-opacity="null" stroke-width="null" stroke="#000" fill="none"/>
  <path id="svg_28" d="m281.263483,313.548916c-1.917873,-0.26104 -2.468295,-2.76931 -1.19717,-4.079287c1.391652,-1.860213 4.055003,-3.034347 6.230084,-1.88878c0.088617,-7.088851 0.038481,-14.179242 0.051722,-21.268853c10.981472,-2.231023 21.977909,-4.388347 32.964143,-6.595893c-0.031654,7.837521 0.077236,15.677707 -0.076483,23.513206c-0.263782,2.021262 -2.295491,3.363664 -4.124588,3.783447c-1.602827,0.498909 -3.859766,-0.582028 -3.480127,-2.531097c0.46936,-2.108022 2.610992,-3.626947 4.669732,-3.811665c1.151476,-0.292414 2.762092,1.259141 2.236046,-0.804416c0.012759,-5.350406 -0.009582,-10.70074 -0.017652,-16.051153c-5.114752,1.020358 -10.22847,2.046072 -15.344188,3.061454c-0.031169,6.553597 0.074204,13.109927 -0.077031,19.661423c-0.308813,2.107951 -2.491825,3.501605 -4.446642,3.770142c-1.935366,0.53175 -3.966937,-1.514233 -2.873534,-3.418698c1.207742,-2.28483 4.287267,-3.840654 6.681789,-2.513662c0.018206,-5.697505 0.076964,-11.39781 -0.027792,-17.094196c-1.295048,-0.285762 -3.285999,0.608423 -4.818694,0.737054c-3.51406,0.701345 -7.027224,1.406959 -10.54087,2.110544c-0.047998,6.697845 0.017034,13.398978 -0.145925,20.094093c-0.827351,2.208502 -3.377038,3.64851 -5.662819,3.326337l0,0l-0.000003,0zm13.601521,-26.52683c2.528653,-0.50655 5.057238,-1.013077 7.585892,-1.51961c0.425911,-1.808734 -1.921024,-0.244904 -2.861125,-0.345709c-4.174514,0.852795 -8.348271,1.70938 -12.524579,2.553006c-0.241921,1.852161 2.517619,-0.050206 3.545368,0.161123c1.418425,-0.2817 2.836502,-0.5648 4.254442,-0.84881l0.000001,0zm15.999332,-3.233561c2.53755,-0.518024 5.087994,-0.989659 7.617403,-1.538495c0.378954,-1.800554 -2.438307,0.058111 -3.424748,-0.148903c-3.934664,0.780798 -7.884569,1.503001 -11.810681,2.316073c-0.42012,1.905076 2.44645,0.006315 3.473164,0.197561c1.38153,-0.275804 2.763194,-0.55116 4.144861,-0.826235l0.000001,0z" fill-opacity="null" stroke-opacity="null" stroke-width="null" stroke="#000" fill="none"/>
  <path id="svg_29" d="m350.172527,327.513978c-2.056439,-0.373638 -2.76556,-2.983847 -1.539519,-4.547645c1.627112,-2.41852 5.107662,-4.048905 7.834714,-2.522879c0.054351,-8.516582 0.022982,-17.033628 0.031295,-25.550416c6.799746,-1.378247 13.614194,-2.685607 20.416514,-4.051863c-0.014731,9.545203 -0.029462,19.090409 -0.044193,28.635609c-1.06565,2.887044 -4.509033,4.889031 -7.50734,3.993805c-1.785045,-0.536849 -2.212988,-2.851776 -1.219,-4.270166c1.361167,-2.115794 3.894639,-3.568472 6.441598,-3.172161c0.72683,-0.073871 1.797136,1.108392 1.489932,-0.22905c0,-6.690668 0,-13.381334 0,-20.071999c-6.241879,1.262433 -12.496095,2.464901 -18.740862,3.713672c-0.021317,7.785908 0.053062,15.572999 -0.055638,23.357953c-0.198711,2.36466 -2.457877,3.977958 -4.566773,4.608282c-0.833112,0.141153 -1.70058,0.22874 -2.540727,0.106859l-0.000001,0.000001zm16.282574,-31.743028c3.2071,-0.634106 6.415711,-1.260598 9.621425,-1.90173c0.40797,-1.632919 -1.417823,-0.572454 -2.310725,-0.532591c-5.475938,1.086048 -10.955038,2.156017 -16.430137,3.246283c-0.40797,1.632919 1.417822,0.572454 2.310724,0.532591c2.269344,-0.449355 4.538985,-0.897172 6.808713,-1.344554l0,0.000001z" fill-opacity="null" stroke-opacity="null" stroke-width="null" stroke="#000" fill="none"/>
  <path id="svg_30" d="m460.156404,325.973761c-2.688445,-0.3077 -3.460018,-3.264984 -1.678175,-4.809406c1.950799,-2.193226 5.684236,-3.577521 8.733237,-2.226858c0.124246,-8.357759 0.053953,-16.717307 0.072503,-25.075882c15.393661,-2.630366 30.808328,-5.173839 46.208631,-7.776522c-0.044372,9.24043 0.108279,18.483899 -0.107259,27.721917c-0.369707,2.383114 -3.21776,3.965769 -5.781763,4.460686c-2.246776,0.588216 -5.41052,-0.686217 -4.87838,-2.984132c0.657918,-2.485337 3.660046,-4.276148 6.546014,-4.493983c1.545722,-0.40592 3.833223,1.526074 3.12782,-0.840219c-0.014498,-7.266678 0.159642,-14.543679 -0.085614,-21.804041c-7.117536,1.096462 -14.305105,2.312589 -21.441777,3.487282c-0.042586,8.674354 0.101342,17.35155 -0.10707,26.023634c-0.3333,2.391474 -3.197871,3.969906 -5.763486,4.444719c-2.61047,0.738271 -5.916881,-1.22848 -4.657872,-3.678646c1.537272,-2.886483 6.056942,-4.869808 9.525556,-3.264415c0.061616,-7.788597 0.027083,-15.577661 0.036162,-23.366473c-7.199928,1.260932 -14.408924,2.485914 -21.615811,3.718162c-0.133081,8.791057 0.112671,17.590284 -0.170045,26.376617c-0.990654,2.721421 -4.727109,4.466111 -7.962671,4.087557l0,0.000003z" fill-opacity="null" stroke-opacity="null" stroke-width="null" stroke="#000" fill="none"/>
  <path id="svg_31" d="m90.564808,316.475277c-3.572747,-0.47777 -5.501806,-4.943885 -1.9319,-6.579897c3.72154,-1.613129 5.934893,4.129551 1.869799,4.690858c-2.225925,0.701517 2.890005,1.876296 3.843524,0.696702c2.97941,-1.213163 2.519164,-4.370675 1.802334,-6.594416c-0.248769,-1.703605 -0.55987,-3.527464 -3.114937,-2.55925c-6.164311,0.417228 -11.044595,-4.843638 -10.554395,-9.765159c0.166425,-4.642088 4.686374,-7.821531 8.033286,-11.045125c-1.098799,-4.217267 -1.430571,-9.089367 1.754742,-12.764394c2.934044,-2.987393 4.423295,2.479292 4.919601,4.334285c1.102423,4.336041 -1.095716,8.892531 -4.753381,11.949073c0.349252,1.449839 0.692886,2.900648 1.048807,4.349342c3.865228,-0.627789 7.554767,2.119792 7.765587,5.338067c0.597239,2.90615 -1.618508,5.650643 -4.644995,6.899623c-0.049766,2.495547 1.589384,5.084176 1.000415,7.661188c-0.565618,2.664401 -4.117582,3.970947 -7.038486,3.389103l-0.000002,0zm4.035168,-11.369713c1.095082,-1.729284 -0.891242,-4.783323 -1.0003,-7.003073c0.042892,-3.87077 -4.837773,0.749807 -3.386369,2.650651c0.430241,1.124775 4.16465,3.187437 0.734299,1.915312c-3.581377,-1.803187 -3.417342,-6.442696 -0.144991,-8.401635c2.745385,-0.511577 1.068608,-3.593519 0.551309,-4.605826c-3.371917,2.585158 -7.19384,5.840389 -6.612316,10.024487c0.438041,3.921736 5.520063,6.300789 9.858368,5.420087l0,-0.000002zm2.26877,-0.748564c3.216012,-1.736829 3.110467,-6.295012 -0.408083,-7.708747c-3.754312,-1.66885 -1.182847,2.703256 -1.114057,4.367434c0.521022,0.637069 0.225884,4.349194 1.522141,3.341312zm-3.963559,-20.89374c1.978255,-2.01322 4.239613,-4.919689 2.850295,-7.581432c-2.991888,-1.661424 -4.654504,2.830468 -4.728085,4.797368c-0.027219,1.275383 -0.25064,5.671409 1.877791,2.784064l0,0l-0.000002,0z" fill-opacity="null" stroke-opacity="null" stroke-width="null" stroke="#000" fill="none"/>
  <path id="svg_37" d="m296.417293,163.142342c-1.141911,-0.535395 -2.517264,-0.07569 -3.073845,1.031832c-0.554281,1.107522 -0.075897,2.438774 1.066014,2.975282c3.582127,1.68744 6.054543,5.237075 6.052243,9.351045c-0.0115,5.736851 -4.806835,10.378424 -10.732583,10.388442c-5.926897,-0.011131 -10.722233,-4.652704 -10.733733,-10.388442c-0.0023,-4.116196 2.471265,-7.66917 6.056843,-9.353271c1.144211,-0.536508 1.619145,-1.86776 1.066014,-2.975282c-0.554281,-1.105295 -1.927334,-1.56834 -3.071545,-1.031832c-5.119625,2.398703 -8.650004,7.483285 -8.652304,13.360385c0.0023,8.196773 6.864115,14.839677 15.334725,14.841904c8.46946,-0.002226 15.332425,-6.64513 15.333575,-14.841904c-0.0023,-5.874874 -3.528079,-10.956116 -8.645404,-13.358158zm-6.688171,10.946099c1.269557,0 2.298771,-0.9951 2.298771,-2.226174l0,-10.389555c0,-1.229961 -1.029215,-2.225061 -2.298771,-2.225061c-1.271856,0 -2.299921,0.996213 -2.299921,2.225061l0,10.388442c0,1.231074 1.028065,2.227287 2.299921,2.227287z" fill-opacity="null" stroke-opacity="null" stroke-width="null" stroke="#000" fill="none"/>
  <path stroke="#000" id="svg_38" d="m147.921317,159.62431c-11.355653,0 -21.102683,6.257868 -25.873685,15.291987c-1.905513,-1.130464 -4.00729,-1.814958 -6.250383,-1.814958c-6.783184,0 -12.42776,5.798647 -14.172379,13.670115c-2.977843,-1.250761 -6.44025,-2.008039 -10.138703,-2.008039c-11.095368,0 -20.095709,6.451 -20.095709,14.403821c0,7.178771 7.381474,13.080381 16.97052,14.172119c-0.42977,0.774865 -0.763132,1.542198 -0.763132,2.355586c0,7.614398 19.631309,13.824568 43.825365,13.824568c24.194053,0 43.825389,-6.210174 43.825365,-13.824568c0,-0.512324 -0.29924,-0.969531 -0.472411,-1.467415c1.059704,0.280043 2.108961,0.579244 3.270552,0.579244c6.472276,0.000021 11.737638,-4.673257 11.737638,-10.426359c0,-5.753106 -5.265361,-10.426354 -11.737638,-10.426354c-0.793162,0 -1.467597,0.291133 -2.216707,0.424779c0.655023,-2.30038 1.09018,-4.647614 1.09018,-7.143986c0,-15.228784 -12.972242,-27.610532 -28.998866,-27.610532l-0.000008,-0.000008z" fill-opacity="null" stroke-opacity="null" stroke-width="null" fill="#fff"/>
  <path stroke="#000" id="svg_39" d="m90.905397,73.325138c-8.34572,0 -15.5092,4.118699 -19.015599,10.064625c-1.400437,-0.74403 -2.945117,-1.194538 -4.593655,-1.194538c-4.985232,0 -9.133655,3.816457 -10.415845,8.997169c-2.188535,-0.823206 -4.733196,-1.321618 -7.451336,-1.321618c-8.154427,0 -14.769136,4.245812 -14.769136,9.480067c0,4.724803 5.424939,8.609027 12.47231,9.327569c-0.315855,0.509987 -0.560856,1.015018 -0.560856,1.55036c0,5.011518 14.42783,9.098823 32.209004,9.098823c17.781171,0 32.209021,-4.087308 32.209003,-9.098823c0,-0.337193 -0.219923,-0.638109 -0.347193,-0.965798c0.778819,0.184314 1.549959,0.381237 2.403658,0.381237c4.756734,0.000013 8.626457,-3.075767 8.626457,-6.862248c0,-3.786483 -3.869723,-6.862244 -8.626457,-6.862244c-0.582926,0 -1.078595,0.191613 -1.629146,0.279574c0.481403,-1.514025 0.801217,-3.058889 0.801217,-4.701909c0,-10.023027 -9.533816,-18.17224 -21.31242,-18.17224l-0.000006,-0.000005z" fill-opacity="null" stroke-opacity="null" stroke-width="null" fill="#fff"/>
  <path stroke="#000" id="svg_40" d="m525.102382,172.105595c-9.063999,0 -16.844008,5.523527 -20.652186,13.497521c-1.520967,-0.997807 -3.19859,-1.601978 -4.98901,-1.601978c-5.414288,0 -9.919747,5.118193 -11.312289,12.06597c-2.376893,-1.103988 -5.140561,-1.772402 -8.09264,-1.772402c-8.856242,0 -16.040248,5.693995 -16.040248,12.713577c0,6.336365 5.891839,11.54544 13.545745,12.509066c-0.343039,0.683937 -0.609126,1.361225 -0.609126,2.079165c0,6.720873 15.669567,12.202299 34.981086,12.202299c19.311516,0 34.981106,-5.481429 34.981086,-12.202299c0,-0.452204 -0.238851,-0.855759 -0.377074,-1.295218c0.845848,0.247181 1.683356,0.511272 2.61053,0.511272c5.166124,0.000019 9.368897,-4.124865 9.368897,-9.202859c0,-5.077997 -4.202773,-9.202854 -9.368897,-9.202854c-0.633096,0 -1.171425,0.256969 -1.769359,0.374933c0.522835,-2.030438 0.870174,-4.102231 0.870174,-6.305662c0,-13.441734 -10.354349,-24.370522 -23.146683,-24.370522l-0.000006,-0.000008z" fill-opacity="null" stroke-opacity="null" stroke-width="null" fill="#fff"/>
  <path stroke="#000" id="svg_41" d="m476.379089,77.604443c-11.253042,0 -20.911997,6.577147 -25.639887,16.07219c-1.888295,-1.18814 -3.97108,-1.907557 -6.193904,-1.907557c-6.72189,0 -12.315461,6.094495 -14.044315,14.36757c-2.950935,-1.314575 -6.382055,-2.11049 -10.047089,-2.11049c-10.995109,0 -19.914122,6.780132 -19.914122,15.138708c0,7.545035 7.314774,13.747747 16.817172,14.895186c-0.425887,0.814399 -0.756235,1.62088 -0.756235,2.475768c0,8.002889 19.453917,14.529903 43.429354,14.529903c23.975433,0 43.429377,-6.527018 43.429354,-14.529903c0,-0.538462 -0.296536,-1.018996 -0.468141,-1.542283c1.050128,0.294331 2.089903,0.608798 3.240998,0.608798c6.413793,0.000022 11.631575,-4.911688 11.631575,-10.958316c0,-6.046632 -5.217783,-10.958311 -11.631575,-10.958311c-0.785995,0 -1.454336,0.305986 -2.196677,0.446451c0.649104,-2.417746 1.080329,-4.884737 1.080329,-7.508475c0,-16.005762 -12.855023,-29.019231 -28.736829,-29.019231l-0.000008,-0.000009z" fill-opacity="null" stroke-opacity="null" stroke-width="null" fill="#fff"/>
 </g>
</svg>